<?xml version="1.0" standalone="no"?>
<!DOCTYPE svg PUBLIC "-//W3C//DTD SVG 20010904//EN"
 "http://www.w3.org/TR/2001/REC-SVG-20010904/DTD/svg10.dtd">
<svg version="1.0" xmlns="http://www.w3.org/2000/svg"
 width="500.000000pt" height="500.000000pt" viewBox="0 0 500.000000 500.000000"
 preserveAspectRatio="xMidYMid meet">

<g transform="translate(0.000000,500.000000) scale(0.100000,-0.100000)"
fill="#000000" stroke="none">
<path d="M1476 3905 c-22 -19 -35 -35 -30 -35 6 0 25 16 44 35 43 44 36 44
-14 0z"/>
<path d="M1493 3883 c-15 -5 -17 -23 -4 -23 5 0 11 7 15 15 3 8 4 15 3 14 -1
0 -8 -3 -14 -6z"/>
<path d="M1410 3850 c0 -5 5 -10 10 -10 6 0 10 5 10 10 0 6 -4 10 -10 10 -5 0
-10 -4 -10 -10z"/>
<path d="M1440 3844 c-7 -8 -20 -12 -27 -9 -13 4 -73 -43 -185 -145 l-27 -25
249 -249 c137 -138 253 -247 257 -242 9 9 34 94 68 234 22 93 23 105 10 119
-9 8 -14 20 -12 26 4 14 -81 70 -94 62 -5 -4 -12 1 -15 10 -7 17 -95 64 -160
84 l-42 13 14 50 c15 57 12 53 43 63 15 4 21 3 17 -3 -3 -5 4 -12 17 -16 42
-11 52 -5 17 11 -43 21 -90 24 -90 6 0 -7 -10 -13 -22 -13 -17 0 -19 -3 -10
-12 15 -15 16 -42 2 -33 -6 4 -8 10 -5 15 3 5 1 11 -4 15 -14 8 -2 33 17 37
11 2 13 6 6 11 -7 4 -17 0 -24 -9z m-40 -34 c-24 -15 -36 -11 -14 4 10 8 21
12 24 10 2 -3 -2 -9 -10 -14z m-70 -64 c0 -3 -4 -8 -10 -11 -5 -3 -10 -1 -10
4 0 6 5 11 10 11 6 0 10 -2 10 -4z m220 -76 c0 -5 -2 -10 -4 -10 -3 0 -8 5
-11 10 -3 6 -1 10 4 10 6 0 11 -4 11 -10z m161 -87 c13 -17 13 -17 -6 -3 -11
8 -22 16 -24 17 -2 2 0 3 6 3 6 0 17 -8 24 -17z"/>
<path d="M1898 3497 c-15 -17 -25 -24 -22 -14 3 9 4 17 1 17 -8 0 -93 -280
-101 -333 -1 -9 -5 -20 -9 -23 -17 -17 -3 -44 47 -92 30 -29 58 -52 62 -52 4
0 48 42 97 93 49 50 137 141 196 201 58 60 98 106 89 103 -10 -4 -18 -5 -18
-4 0 1 4 17 9 35 6 20 6 32 0 32 -5 0 -9 -7 -9 -15 0 -11 -11 -15 -41 -15 -22
0 -38 4 -34 9 6 10 -47 40 -74 43 -9 0 4 4 29 8 35 6 26 8 -42 6 -47 0 -84 2
-81 7 2 4 -15 8 -39 8 l-43 2 40 7 40 7 -35 2 c-28 1 -40 -5 -62 -32z m310
-119 c-2 -6 -10 -14 -16 -16 -7 -2 -10 2 -6 12 7 18 28 22 22 4z"/>
<path d="M2043 3513 c26 -2 68 -2 95 0 26 2 4 3 -48 3 -52 0 -74 -1 -47 -3z"/>
<path d="M2188 3443 c7 -3 16 -2 19 1 4 3 -2 6 -13 5 -11 0 -14 -3 -6 -6z"/>
<path d="M933 3423 c-14 -13 -18 -24 -12 -38 7 -19 8 -19 8 -1 1 11 8 28 18
38 21 23 12 23 -14 1z"/>
<path d="M2275 3429 c-11 -17 1 -21 15 -4 8 9 8 15 2 15 -6 0 -14 -5 -17 -11z"/>
<path d="M946 3402 c-2 -4 -1 -14 4 -22 7 -11 9 -9 7 8 -1 24 -3 26 -11 14z"/>
<path d="M853 3352 c-12 -8 -106 -87 -133 -112 -8 -8 -60 -55 -113 -103 l-98
-88 173 1 c95 1 178 1 183 1 6 -1 10 -139 10 -393 l0 -393 478 -3 477 -2 -1
237 c-1 131 -5 270 -9 308 l-7 70 -2 -60 -3 -60 -13 45 c-12 41 -13 43 -15 15
-1 -18 -4 -23 -7 -12 -2 9 -9 17 -15 17 -5 0 -23 14 -40 30 -16 17 -38 30 -49
30 -10 0 -27 9 -36 20 -10 11 -30 20 -46 20 -15 0 -30 6 -33 14 -3 8 -18 19
-34 26 -16 7 -31 18 -34 26 -7 17 -46 19 -46 2 0 -9 -3 -9 -12 0 -7 7 -25 12
-40 12 -26 0 -28 3 -28 40 0 37 -2 40 -29 40 -16 0 -34 7 -41 15 -7 8 -29 15
-49 15 -38 0 -87 32 -76 50 7 12 -32 33 -45 25 -6 -4 -24 8 -40 25 -16 17 -34
29 -39 26 -5 -4 -12 4 -14 16 -2 13 -3 7 -2 -12 2 -19 6 -44 10 -55 3 -11 -3
-4 -14 15 -11 20 -18 46 -15 60 3 20 3 21 -4 6 -12 -28 -26 -2 -17 32 6 25 5
26 -8 8 -13 -17 -10 -29 24 -108 22 -49 39 -96 39 -104 0 -7 5 -14 10 -14 6 0
10 -4 10 -9 0 -5 14 -41 32 -80 30 -68 33 -71 67 -72 60 -2 75 -5 107 -22 40
-21 59 -43 44 -52 -6 -4 -14 -5 -16 -2 -3 3 -29 -2 -57 -10 -29 -8 -91 -25
-140 -38 -48 -13 -91 -26 -95 -29 -4 -3 -13 -1 -20 3 -17 10 29 103 62 124
l26 18 -29 57 c-15 31 -41 87 -56 125 -16 37 -32 67 -37 67 -5 0 -6 5 -3 10 4
6 -1 23 -10 37 -10 14 -21 38 -25 52 -4 14 -12 25 -18 24 -6 -2 -9 3 -6 11 3
8 0 17 -7 22 -8 5 -10 3 -4 -6 5 -9 4 -11 -4 -6 -8 5 -9 12 -2 20 12 15 0 37
-16 28z m-63 -87 c-7 -9 -15 -13 -19 -10 -3 3 1 10 9 15 21 14 24 12 10 -5z
m101 -18 c-10 -9 -11 -8 -5 6 3 10 9 15 12 12 3 -3 0 -11 -7 -18z m20 -54
c-12 -20 -14 -14 -5 12 4 9 9 14 11 11 3 -2 0 -13 -6 -23z m19 -23 c0 -5 -5
-10 -11 -10 -5 0 -7 5 -4 10 3 6 8 10 11 10 2 0 4 -4 4 -10z m730 -334 c0 -3
-4 -8 -10 -11 -5 -3 -10 -1 -10 4 0 6 5 11 10 11 6 0 10 -2 10 -4z m-232 -158
c59 -117 93 -158 151 -184 43 -20 48 -35 14 -40 -11 -2 -72 -21 -135 -42 -87
-30 -119 -36 -136 -29 -21 9 -112 117 -112 134 0 4 -8 17 -17 28 -15 19 -15
19 -8 -10 11 -50 52 -131 79 -158 l26 -26 -48 -6 c-26 -3 -61 -8 -77 -10 -26
-4 -33 -1 -47 27 -59 116 -145 356 -131 369 4 4 26 10 48 14 22 3 99 23 170
45 l130 39 20 -24 c11 -13 44 -71 73 -127z m249 127 c-4 -8 -12 -15 -19 -14
-10 0 -10 2 0 6 6 2 12 12 12 21 0 8 3 13 6 9 4 -3 4 -13 1 -22z m-27 -35 c71
-38 39 -150 -43 -150 -14 0 -35 8 -48 19 -19 15 -23 27 -21 62 4 65 57 98 112
69z m136 -206 c5 -21 2 -31 -16 -44 -22 -16 -26 -17 -47 -3 -41 27 -23 73 29
73 22 0 29 -6 34 -26z"/>
<path d="M943 3330 c6 -16 13 -28 15 -26 6 6 -10 56 -18 56 -5 0 -3 -13 3 -30z"/>
<path d="M1525 3189 c-4 -6 -5 -12 -2 -15 2 -3 7 2 10 11 7 17 1 20 -8 4z"/>
<path d="M1710 3015 c7 -8 17 -15 22 -15 5 0 3 7 -6 15 -8 8 -18 15 -22 15 -3
0 -1 -7 6 -15z"/>
<path d="M1760 2971 c0 -10 49 -56 54 -50 1 2 -10 16 -25 31 -16 15 -29 24
-29 19z"/>
<path d="M1921 2468 l-1 -198 94 0 c86 0 95 2 101 20 4 11 18 33 31 50 22 25
23 32 13 52 -7 13 -12 24 -10 26 1 1 -5 15 -13 31 -18 33 -77 71 -112 71 -17
0 -24 5 -24 19 0 23 -16 37 -22 19 -6 -17 -39 34 -48 75 -5 19 -8 -50 -9 -165z
m189 -158 c0 -5 -4 -10 -10 -10 -5 0 -10 5 -10 10 0 6 5 10 10 10 6 0 10 -4
10 -10z"/>
<path d="M2290 2462 c0 -20 -101 -69 -120 -57 -6 3 -7 0 -4 -10 4 -9 9 -14 13
-13 3 2 32 16 64 30 42 20 57 32 57 47 0 12 -2 21 -5 21 -3 0 -5 -8 -5 -18z"/>
<path d="M2190 2430 c-9 -6 -10 -10 -3 -10 6 0 15 5 18 10 8 12 4 12 -15 0z"/>
<path d="M4130 1805 c0 -18 5 -25 20 -25 15 0 20 7 20 25 0 18 -5 25 -20 25
-15 0 -20 -7 -20 -25z"/>
<path d="M4207 1823 c-4 -3 -7 -15 -7 -25 0 -13 7 -18 25 -18 20 0 25 5 25 25
0 18 -5 25 -18 25 -10 0 -22 -3 -25 -7z"/>
<path d="M280 1742 c-20 -16 -25 -29 -25 -66 0 -41 5 -50 48 -94 39 -40 48
-55 45 -78 -4 -38 -39 -41 -48 -4 -8 36 -44 34 -48 -2 -2 -19 5 -36 23 -54 22
-22 32 -25 63 -20 46 7 62 28 62 81 0 36 -7 50 -51 100 -53 61 -62 97 -23 103
14 2 24 -5 32 -23 15 -32 36 -28 39 6 6 56 -70 89 -117 51z"/>
<path d="M680 1739 c0 -21 -35 -248 -45 -296 -5 -19 -1 -23 20 -23 21 0 25 5
25 30 0 28 2 30 40 30 38 0 40 -2 40 -30 0 -25 4 -30 25 -30 14 0 25 6 25 13
0 7 -11 81 -25 165 -14 84 -25 155 -25 157 0 3 -18 5 -40 5 -34 0 -40 -3 -40
-21z m56 -147 c7 -74 7 -74 -17 -70 -13 1 -24 8 -24 13 3 55 19 145 26 138 4
-4 11 -41 15 -81z"/>
<path d="M1050 1589 l0 -170 23 3 c21 3 22 6 19 111 -2 103 9 141 22 75 4 -18
16 -68 27 -110 19 -70 24 -78 45 -78 l24 0 0 170 c0 162 -1 170 -20 170 -18 0
-20 -8 -22 -97 l-3 -98 -24 98 -25 97 -33 0 -33 0 0 -171z"/>
<path d="M1470 1590 l0 -172 59 4 c81 6 91 16 91 94 0 48 -4 65 -16 72 -16 9
-16 11 0 33 20 29 20 87 1 113 -11 15 -31 21 -75 24 l-60 4 0 -172z m95 75 c0
-34 -3 -40 -22 -43 -21 -3 -23 1 -23 43 0 42 2 46 23 43 19 -3 22 -9 22 -43z
m10 -125 c10 -44 -2 -70 -31 -70 -22 0 -24 4 -24 50 0 46 2 50 24 50 19 0 26
-7 31 -30z"/>
<path d="M1870 1590 l0 -170 70 0 c68 0 70 1 70 25 0 23 -4 25 -45 25 l-45 0
0 50 0 50 35 0 c31 0 35 3 35 25 0 22 -4 25 -35 25 -35 0 -35 0 -35 45 l0 45
45 0 c41 0 45 2 45 25 0 24 -2 25 -70 25 l-70 0 0 -170z"/>
<path d="M2242 1738 c2 -17 11 -24 31 -26 l27 -3 0 -145 0 -144 25 0 25 0 0
149 0 148 25 -5 c22 -4 25 -1 25 22 0 26 0 26 -81 26 -78 0 -80 -1 -77 -22z"/>
<path d="M2630 1734 c0 -23 3 -26 25 -22 l25 5 0 -148 0 -149 25 0 25 0 0 144
0 145 28 3 c19 2 28 9 30 26 3 21 1 22 -77 22 -81 0 -81 0 -81 -26z"/>
<path d="M3055 1713 c-4 -27 -15 -100 -26 -164 -10 -64 -19 -119 -19 -123 0
-3 11 -6 25 -6 21 0 25 5 25 30 0 27 3 30 34 30 30 0 35 -4 41 -30 5 -23 12
-30 31 -30 13 0 24 3 24 6 0 4 -9 59 -19 123 -11 64 -22 137 -26 164 -6 47 -6
47 -45 47 -39 0 -39 0 -45 -47z m60 -126 c7 -63 6 -67 -13 -67 -12 0 -23 4
-26 8 -2 4 0 43 6 86 13 89 22 81 33 -27z"/>
<path d="M3736 1739 c-26 -20 -26 -22 -26 -145 0 -119 1 -126 25 -149 37 -38
96 -31 120 14 14 29 14 227 -1 264 -15 39 -78 47 -118 16z m79 -51 c3 -13 5
-66 3 -118 -3 -94 -3 -95 -28 -95 -25 0 -25 0 -28 104 -1 58 0 111 2 118 9 22
45 15 51 -9z"/>
<path d="M4112 1609 c3 -147 4 -151 28 -171 26 -21 82 -20 104 2 7 6 13 74 16
165 5 155 5 155 -17 155 -22 0 -23 -3 -25 -142 l-3 -143 -25 0 -25 0 -3 143
-3 142 -25 0 -25 0 3 -151z"/>
<path d="M2545 792 c-70 -12 -115 -58 -123 -127 -4 -44 9 -78 49 -125 19 -22
29 -25 90 -25 64 0 69 2 98 34 61 69 62 149 2 204 -28 26 -85 45 -116 39z"/>
<path d="M3546 774 c-42 -15 -86 -56 -86 -80 0 -8 -5 -23 -12 -33 -7 -11 -8
-26 -3 -37 9 -20 12 -29 14 -41 3 -22 53 -65 90 -78 36 -12 46 -12 82 0 135
48 134 222 -1 270 -23 8 -43 15 -44 14 0 0 -18 -7 -40 -15z"/>
<path d="M498 733 c-9 -2 -23 -19 -32 -37 -20 -41 -12 -91 18 -111 23 -17 72
-20 81 -5 4 6 -8 10 -29 10 -25 0 -39 6 -50 22 -35 49 -7 108 50 108 21 0 33
4 29 10 -6 10 -36 11 -67 3z"/>
<path d="M677 729 c-4 -9 -7 -47 -5 -85 l3 -69 43 -3 c25 -2 42 1 42 7 0 6
-16 11 -35 11 l-34 0 -3 78 c-2 46 -6 71 -11 61z"/>
<path d="M860 655 l0 -85 45 0 c25 0 45 5 45 10 0 6 -16 10 -35 10 -32 0 -35
2 -35 30 0 27 3 30 30 30 17 0 30 5 30 10 0 6 -13 10 -30 10 -25 0 -30 4 -30
25 0 21 5 25 29 25 17 0 33 5 36 10 4 6 -12 10 -39 10 l-46 0 0 -85z"/>
<path d="M1096 731 c-12 -18 -56 -141 -56 -154 1 -6 8 0 16 16 12 21 22 27 50
27 28 0 36 -5 45 -26 5 -15 12 -24 16 -20 6 6 -43 143 -57 159 -4 5 -11 4 -14
-2z m28 -68 c6 -20 4 -23 -18 -23 -30 0 -29 -2 -15 40 12 34 19 30 33 -17z"/>
<path d="M1272 653 l2 -88 5 72 6 72 45 -69 c25 -38 50 -68 55 -67 14 5 19
147 6 160 -8 8 -11 -10 -11 -63 l-1 -75 -45 73 c-26 39 -50 72 -55 72 -5 0 -8
-39 -7 -87z"/>
<path d="M1514 655 c0 -49 1 -71 3 -48 2 23 2 64 0 90 -2 26 -3 8 -3 -42z"/>
<path d="M1642 653 c2 -82 2 -84 5 -20 2 37 7 67 11 67 4 -1 25 -30 47 -65 22
-36 44 -64 50 -62 13 5 17 154 5 162 -6 4 -10 -22 -10 -67 l0 -73 -46 70 c-25
39 -49 72 -54 73 -6 2 -9 -32 -8 -85z"/>
<path d="M1895 715 c-54 -53 -16 -145 58 -145 41 0 54 14 53 55 -1 25 -5 31
-30 33 -18 2 -26 0 -21 -7 3 -6 13 -11 21 -11 8 0 14 -10 14 -25 0 -22 -4 -25
-34 -25 -44 0 -66 22 -66 65 0 45 22 65 73 65 31 0 38 3 27 10 -27 17 -70 11
-95 -15z"/>
</g>
</svg>
